<svg xmlns="http://www.w3.org/2000/svg" width="18.872" height="18.872" viewBox="0 0 18.872 18.872">
  <g id="info" transform="translate(0.1 0.1)">
    <g id="Group_3509" data-name="Group 3509">
      <g id="Group_3508" data-name="Group 3508">
        <path id="Path_2104" data-name="Path 2104" d="M9.336,0a9.336,9.336,0,1,0,9.336,9.336A9.331,9.331,0,0,0,9.336,0Zm0,17.427a8.091,8.091,0,1,1,8.091-8.091A8.1,8.1,0,0,1,9.336,17.427Z" fill="#103374" stroke="#103374" stroke-width="0.2"/>
      </g>
    </g>
    <g id="Group_3511" data-name="Group 3511" transform="translate(8.713 7.65)">
      <g id="Group_3510" data-name="Group 3510">
        <path id="Path_2105" data-name="Path 2105" d="M239.552,209.777a.622.622,0,0,0-.622.622v5.25a.622.622,0,0,0,1.245,0V210.4A.622.622,0,0,0,239.552,209.777Z" transform="translate(-238.93 -209.777)" fill="#103374" stroke="#103374" stroke-width="0.2"/>
      </g>
    </g>
    <g id="Group_3513" data-name="Group 3513" transform="translate(8.091 4.527)">
      <g id="Group_3512" data-name="Group 3512">
        <path id="Path_2106" data-name="Path 2106" d="M223.112,124.122a1.245,1.245,0,1,0,1.245,1.245A1.246,1.246,0,0,0,223.112,124.122Z" transform="translate(-221.867 -124.122)" fill="#103374" stroke="#103374" stroke-width="0.2"/>
      </g>
    </g>
  </g>
</svg>
